<svg width="392" height="200" viewBox="0 0 392 200" fill="none" xmlns="http://www.w3.org/2000/svg">
<path d="M335.425 3.332V2.60094C348.408 3.10239 359.843 3.35365 369.727 3.35365C377.206 3.35365 383.586 3.14898 388.853 2.73368V4.18161C378.984 9.71588 369.203 22.5684 359.342 41.9271L359.34 41.9324L333.161 93.6256L332.892 94.1581V94.755V169.592C332.892 176.708 333.421 182.199 334.628 185.829C335.824 189.556 338.097 192.329 341.511 193.796C344.131 194.943 347.991 195.676 352.905 196.1V196.75C342.061 196.263 326.763 196.021 307.031 196.021C286.543 196.021 271.146 196.26 260.873 196.743V196.1C265.813 195.676 269.719 194.942 272.428 193.808C275.925 192.344 278.224 189.552 279.359 185.77L279.362 185.758C280.418 182.167 280.887 176.709 280.887 169.592V117.804V117.17L280.585 116.612L228.512 20.5294L228.512 20.5294L228.508 20.5217C225.477 14.9755 222.408 10.7129 219.259 7.9104C217.079 5.93008 214.817 4.45996 212.5 3.8236V2.74393C223.507 3.72066 235.606 4.2073 248.794 4.2073C264.408 4.2073 284.223 3.67555 308.231 2.6143V3.48893C301.878 3.559 296.906 3.90559 293.389 4.56124L293.373 4.56423L293.357 4.56744C291.205 4.9978 289.274 5.78086 287.857 7.12711C286.366 8.54418 285.656 10.384 285.656 12.4253C285.656 14.1874 286.183 15.9652 287.058 17.7168L287.068 17.7364L287.078 17.7559L327.295 94.774L329.551 99.0944L331.744 94.7416L344.453 69.5115L344.458 69.5016C353.291 51.7738 357.905 37.3694 357.905 26.4631C357.905 19.3208 355.886 13.4968 351.482 9.42731C347.586 5.82714 342.131 3.88893 335.425 3.332Z" stroke="#FEFBF8" stroke-width="5"/>
<path d="M190.17 88.0814C194.105 88.0814 197.36 88.5166 199.937 89.3871C202.513 90.2576 204.637 91.3717 206.309 92.7296C208.363 94.3661 209.825 96.1418 210.696 98.0568C211.566 99.9718 212.001 101.765 212.001 103.436C212.001 106.013 211.096 108.015 209.285 109.442C207.475 110.905 205.49 111.636 203.332 111.636C201.277 111.636 199.415 110.957 197.743 109.599C196.107 108.276 195.289 106.361 195.289 103.854C195.289 101.591 196.055 99.6585 197.587 98.0568C199.153 96.4552 201.121 95.5499 203.488 95.341C203.07 94.0179 201.817 92.8689 199.728 91.894C197.604 90.9191 194.94 90.4316 191.737 90.4316C186.48 90.4316 182.162 91.9985 178.785 95.1321C175.442 98.2657 173.771 102.827 173.771 108.816C173.771 111.706 174.311 114.648 175.39 117.642C176.469 120.636 178.558 123.579 181.657 126.468C183.433 126.155 185.244 125.929 187.089 125.79C188.934 125.615 190.327 125.528 191.267 125.528C195.41 125.528 197.482 126.73 197.482 129.132C197.482 130.037 197.082 130.751 196.281 131.273C195.515 131.796 194.47 132.057 193.147 132.057C191.163 132.057 189.091 131.622 186.932 130.751C184.774 129.881 183.067 129.184 181.814 128.662C175.825 130.403 170.968 133.258 167.243 137.227C163.552 141.197 161.707 146.802 161.707 154.045C161.707 161.147 163.552 167.188 167.243 172.167C170.968 177.112 175.965 180.907 182.232 183.553C188.464 186.164 195.445 187.47 203.175 187.47C208.641 187.47 213.829 186.826 218.739 185.538C223.648 184.249 227.983 182.369 231.743 179.897C235.504 177.425 238.481 174.448 240.674 170.966C242.833 167.519 243.912 163.585 243.912 159.163C243.912 157.178 243.494 154.671 242.659 151.642C241.823 148.578 240.117 145.584 237.54 142.659C235.407 140.209 232.32 138.212 228.278 136.669C225.477 137.549 222.767 138.414 220.149 139.264C216.179 140.552 212.959 141.649 210.487 142.555C206.657 144.017 203.419 145.81 200.772 147.934C198.161 150.058 196.855 152.756 196.855 156.029C196.855 158.71 197.621 160.991 199.153 162.871C200.72 164.716 202.6 166.109 204.794 167.049C207.022 167.989 209.111 168.459 211.061 168.459C212.524 168.459 214.369 168.163 216.597 167.571C218.791 167.014 220.044 166.161 220.358 165.012C218.721 164.699 217.102 163.95 215.501 162.766C213.899 161.583 213.098 159.702 213.098 157.126C213.098 154.654 213.916 152.687 215.553 151.224C217.224 149.797 219.243 149.083 221.611 149.083C224.083 149.083 226.068 149.849 227.565 151.381C229.062 152.948 229.811 154.967 229.811 157.439C229.811 160.329 228.853 162.784 226.938 164.803C225.023 166.823 222.656 168.32 219.835 169.295C216.98 170.27 214.16 170.757 211.375 170.757C208.485 170.757 205.543 170.131 202.548 168.877C199.554 167.658 197.082 165.726 195.132 163.08C193.182 160.468 192.207 156.987 192.207 152.634C192.207 147.272 194 142.763 197.587 139.107C201.208 135.452 206.535 132.422 213.568 130.02C216.667 129.01 220.427 127.879 224.849 126.625C229.306 125.407 233.884 124.066 238.585 122.604C243.251 121.176 247.498 119.574 251.328 117.799C256.481 115.431 259.998 113.011 261.878 110.539C263.724 108.067 264.646 105.543 264.646 102.966C264.646 98.5095 262.871 94.7839 259.319 91.7895C255.768 88.7952 251.555 87.298 246.68 87.298C245.462 87.298 244.434 87.4025 243.599 87.6114C242.763 87.8203 242.241 88.1859 242.032 88.7081C243.494 89.4393 244.591 90.4665 245.322 91.7895C246.019 93.1475 246.367 94.488 246.367 95.8111C246.367 98.0046 245.514 99.8151 243.808 101.243C242.102 102.705 240.065 103.436 237.697 103.436C235.747 103.436 233.902 102.775 232.161 101.452C230.385 100.163 229.497 98.2309 229.497 95.6544C229.497 92.9734 230.403 90.8669 232.213 89.3349C234.024 87.768 236.235 86.6539 238.846 85.9923C241.492 85.3308 244.051 85 246.523 85C252.93 85 258.309 86.828 262.662 90.4839C266.979 94.1398 269.138 99.2755 269.138 105.891C269.138 111.148 267.71 115.553 264.855 119.104C262.035 122.691 258.553 125.511 254.41 127.565C252.042 128.714 248.926 129.95 245.061 131.273C241.196 132.631 237.07 133.972 232.683 135.295C232.304 135.412 231.926 135.53 231.55 135.646C236.985 137.921 241.002 141.077 243.599 145.114C246.802 150.127 248.404 155.733 248.404 161.931C248.404 168.128 246.541 174.065 242.815 179.74C239.09 185.416 233.728 190.029 226.729 193.581C219.696 197.167 211.183 198.96 201.19 198.96C192.312 198.96 184.042 197.411 176.382 194.312C168.757 191.213 162.629 186.774 157.998 180.994C153.333 175.214 151 168.337 151 160.364C151 154.793 152.079 150.023 154.238 146.054C156.432 142.084 159.13 138.812 162.333 136.235C165.537 133.658 168.722 131.674 171.891 130.281C175.094 128.888 177.688 127.931 179.673 127.409C174.485 125.145 170.585 122.203 167.974 118.582C165.328 114.961 164.004 111.253 164.004 107.458C164.004 104.951 164.579 102.548 165.728 100.25C166.842 97.9176 168.496 95.8285 170.69 93.9831C172.848 92.1029 175.547 90.658 178.785 89.6482C182.058 88.6037 185.853 88.0814 190.17 88.0814Z" fill="#FEFBF8"/>
<path fill-rule="evenodd" clip-rule="evenodd" d="M0 0V5.691C6.32333 5.8807 11.1291 6.57626 14.4172 7.77769C17.7053 8.97912 19.9185 11.2239 21.0567 14.512C22.1949 17.8002 22.764 22.8904 22.764 29.7829V169.307C22.764 176.01 22.1949 181.068 21.0567 184.483C19.9185 187.834 17.7053 190.079 14.4172 191.217C11.1291 192.356 6.32333 193.114 0 193.494V199.09C3.92046 198.711 9.07397 198.489 15.4605 198.426C21.7839 198.299 28.2336 198.236 34.8099 198.236C46.4448 198.236 56.3724 198.394 64.5928 198.71C72.8763 198.963 79.0732 199.09 83.1833 199.09C104.366 199.09 120.902 193.968 132.79 183.724C144.678 173.544 150.622 160.486 150.622 144.551C150.622 136.837 148.946 129.533 145.595 122.641C142.243 115.685 136.394 109.646 128.047 104.525C119.701 99.3394 108.129 95.7984 93.3323 93.9014V93.3323C103.829 90.1706 112.207 86.0288 118.467 80.9069C124.728 75.7218 129.217 69.9992 131.936 63.7391C134.655 57.4158 136.015 50.9976 136.015 44.4846C136.015 31.5218 131.051 20.9302 121.123 12.7099C111.196 4.42633 96.3991 0.284556 76.7336 0.284556C73.319 0.284556 67.5964 0.379394 59.5657 0.569094C51.4719 0.758794 43.0302 0.85365 34.2408 0.85365C28.044 0.85365 21.7839 0.758794 15.4605 0.569094C9.07397 0.379394 3.92046 0.1897 0 0ZM48.8477 98.1696V169.307C48.8477 179.045 50.2072 185.368 52.9262 188.277C55.6453 191.186 61.3363 192.64 69.9992 192.64C88.3369 192.64 101.679 188.372 110.026 179.835C118.373 171.299 122.546 159.158 122.546 143.413C122.546 128.996 118.657 117.835 110.88 109.931C103.102 102.09 90.2971 98.1696 72.4653 98.1696H48.8477ZM52.8314 10.4335C55.424 7.27183 61.0517 5.691 69.7147 5.691C83.7525 5.691 93.8065 9.20043 99.8769 16.2193C106.011 23.2382 109.077 33.6717 109.077 47.5198C109.077 55.6137 107.939 63.17 105.663 70.1889C103.45 77.2078 99.3394 82.8356 93.3323 87.0722C87.3251 91.2456 78.7886 93.3323 67.7228 93.3323H48.8477V29.7829C48.8477 20.0449 50.1756 13.5952 52.8314 10.4335Z" fill="#FEFBF8"/>
</svg>
